<?xml version="1.0" encoding="utf-8"?>
<!-- Generator: Adobe Illustrator 24.2.1, SVG Export Plug-In . SVG Version: 6.00 Build 0)  -->
<svg version="1.1" id="Layer_1" xmlns="http://www.w3.org/2000/svg" xmlns:xlink="http://www.w3.org/1999/xlink" x="0px" y="0px"
	 viewBox="0 0 170 60" style="enable-background:new 0 0 170 60;" xml:space="preserve">
<style type="text/css">
	.st0{fill:#5960B2;}
	.st1{font-family:'Roboto-Bold';}
	.st2{font-size:50px;}
	.st3{fill:url(#SVGID_1_);}
	.st4{fill:url(#SVGID_2_);}
	.st5{fill:url(#SVGID_3_);}
	.st6{fill:url(#SVGID_4_);}
	.st7{fill:url(#SVGID_5_);}
	.st8{fill:url(#SVGID_6_);}
	.st9{fill:url(#SVGID_7_);}
	.st10{fill:url(#SVGID_8_);}
</style>
<text transform="matrix(1 0 0 1 1.0798 44.761)" class="st0 st1 st2">TRAG</text>
<linearGradient id="SVGID_1_" gradientUnits="userSpaceOnUse" x1="139.8702" y1="22.2186" x2="168.2055" y2="22.2186">
	<stop  offset="0" style="stop-color:#2995CC"/>
	<stop  offset="1" style="stop-color:#3F4292"/>
</linearGradient>
<path class="st3" d="M163.86,16.08c-0.63-0.74-1.31-1.42-2.05-2.05c-0.05-0.04-0.1-0.09-0.15-0.13c0.05,0.04,0.1,0.09,0.15,0.13
	c-0.01-0.01-0.03-0.03-0.04-0.04c-0.04-0.03-0.07-0.06-0.11-0.09c-0.23-0.18-0.46-0.34-0.69-0.5c-0.24-0.16-0.48-0.31-0.73-0.46
	c-0.24-0.14-0.47-0.27-0.71-0.4c-0.05-0.03-0.1-0.05-0.14-0.07c-0.2-0.11-0.42-0.21-0.63-0.3c-0.02-0.01-0.04-0.01-0.06-0.02
	c-0.24-0.11-0.49-0.22-0.75-0.3c-0.26-0.1-0.52-0.18-0.77-0.26c-0.01,0-0.03-0.01-0.03-0.01c-0.27-0.07-0.52-0.14-0.79-0.2
	c-0.27-0.06-0.54-0.11-0.82-0.16c-0.27-0.04-0.55-0.08-0.82-0.1c-0.27-0.03-0.54-0.05-0.81-0.07c0,0-0.01,0.01-0.01,0
	c-0.55-0.01-1.11-0.01-1.66,0.04c-0.5,0.04-1,0.11-1.49,0.21c-0.32,0.06-0.63,0.14-0.96,0.22c-2.19,0.59-4.25,1.75-5.97,3.47
	c-1.26,1.26-2.22,2.7-2.87,4.25c-1.2,2.81-1.39,5.94-0.6,8.84c0.52,1.92,1.48,3.76,2.88,5.33c-0.06-0.08-0.11-0.16-0.17-0.23
	c-0.04-0.06-0.08-0.11-0.12-0.17c-0.11-0.15-0.22-0.31-0.31-0.47c-0.04-0.06-0.07-0.12-0.11-0.18c-0.09-0.16-0.18-0.32-0.26-0.49
	c-0.03-0.06-0.06-0.13-0.09-0.19c-0.02-0.03-0.03-0.06-0.05-0.1c0,0,0-0.01,0-0.01c-0.06-0.13-0.11-0.27-0.17-0.4
	c-0.03-0.06-0.05-0.13-0.07-0.19c-0.01-0.02-0.01-0.03-0.02-0.05c-0.01-0.03-0.02-0.05-0.03-0.08c-0.05-0.13-0.08-0.26-0.12-0.4
	c-0.02-0.06-0.04-0.13-0.06-0.19c0-0.01,0-0.02-0.01-0.02c-0.01-0.04-0.03-0.08-0.04-0.13c0,0,0,0,0,0
	c-0.03-0.11-0.05-0.23-0.07-0.34c0-0.02-0.01-0.03-0.01-0.05c-0.01-0.06-0.03-0.13-0.04-0.19c-0.01-0.06-0.02-0.11-0.03-0.17
	c0,0,0-0.01,0-0.01c-0.02-0.12-0.03-0.24-0.04-0.37c0,0,0,0,0-0.01c-0.01-0.06-0.01-0.12-0.02-0.19c0-0.06-0.01-0.12-0.02-0.18
	c0-0.02,0-0.03,0-0.05c-0.01-0.16-0.01-0.31-0.01-0.47c0-0.03,0-0.05,0-0.08c0-0.07,0-0.14,0-0.21c0-0.06,0-0.13,0-0.19
	c0-0.14,0.01-0.27,0.03-0.4c0.12-2.1,0.74-4.07,1.73-5.8c1.49-2.62,3.84-4.69,6.67-5.83c1.55-0.63,3.26-0.97,5.03-0.97
	c2.42,0,4.71,0.64,6.67,1.77c0.29,0.17,0.56,0.33,0.83,0.52c0.42,0.28,0.82,0.57,1.2,0.91c0.43,0.35,0.82,0.74,1.2,1.15l0.01,0.01
	c0.19,0.2,0.36,0.41,0.53,0.62c0.19,0.21,0.35,0.43,0.51,0.66c0.17,0.23,0.32,0.46,0.46,0.69c0.16,0.23,0.29,0.46,0.42,0.7
	c0.01,0.01,0.01,0.02,0.02,0.03c0.13,0.24,0.25,0.48,0.36,0.73c0.12,0.24,0.22,0.49,0.31,0.74c0.02,0.02,0.02,0.04,0.03,0.06
	c0.09,0.21,0.17,0.44,0.23,0.66c0.03,0.05,0.04,0.1,0.06,0.15c0.08,0.26,0.16,0.53,0.22,0.79c0.07,0.28,0.14,0.56,0.19,0.84
	c0.06,0.28,0.09,0.56,0.13,0.84c-0.05-0.55-0.12-1.09-0.22-1.63c-0.02-0.1-0.04-0.19-0.06-0.29c-0.08-0.43-0.17-0.86-0.29-1.27
	c-0.05-0.2-0.12-0.39-0.18-0.59c-0.1-0.31-0.19-0.63-0.3-0.93c-0.09-0.25-0.2-0.49-0.3-0.74c-0.1-0.25-0.2-0.5-0.31-0.74
	c-0.14-0.29-0.29-0.58-0.44-0.86c-0.1-0.18-0.19-0.37-0.29-0.56c-0.21-0.37-0.45-0.73-0.69-1.09c-0.06-0.08-0.11-0.17-0.17-0.26
	c-0.31-0.45-0.64-0.88-1-1.3C163.93,16.16,163.89,16.12,163.86,16.08z"/>
<linearGradient id="SVGID_2_" gradientUnits="userSpaceOnUse" x1="141.3838" y1="27.2736" x2="168.2763" y2="27.2736">
	<stop  offset="0" style="stop-color:#2995CC"/>
	<stop  offset="1" style="stop-color:#3F4292"/>
</linearGradient>
<path class="st4" d="M167.64,32.88c0.11-0.42,0.2-0.84,0.29-1.27c0.02-0.1,0.05-0.19,0.06-0.29c0.09-0.54,0.17-1.08,0.22-1.63
	c0-0.05,0.01-0.1,0.01-0.14c0.08-0.98,0.08-1.97,0-2.95c0-0.05-0.01-0.1-0.01-0.14c-0.04-0.29-0.07-0.56-0.13-0.84
	c-0.05-0.28-0.11-0.56-0.19-0.84c-0.06-0.26-0.14-0.53-0.22-0.79c-0.02-0.05-0.03-0.1-0.06-0.15c-0.06-0.22-0.14-0.44-0.23-0.66
	c-0.01-0.02-0.01-0.04-0.03-0.06c-0.09-0.25-0.19-0.5-0.31-0.74c-0.11-0.25-0.23-0.49-0.36-0.73c-0.01-0.01-0.01-0.02-0.02-0.03
	c-0.13-0.24-0.26-0.47-0.42-0.7c-0.14-0.23-0.3-0.46-0.46-0.69c-0.16-0.22-0.32-0.44-0.51-0.66c-0.17-0.21-0.34-0.42-0.53-0.62
	l-0.01-0.01c-0.38-0.4-0.78-0.79-1.2-1.15c-0.38-0.32-0.79-0.63-1.2-0.91c-0.27-0.19-0.55-0.35-0.83-0.52
	c-1.96-1.13-4.25-1.77-6.67-1.77c-1.78,0-3.48,0.34-5.03,0.97c-2.83,1.14-5.18,3.21-6.67,5.83c-0.99,1.73-1.61,3.7-1.73,5.8
	c0.01-0.1,0.03-0.19,0.04-0.29c0.01-0.07,0.02-0.13,0.03-0.2c0.03-0.18,0.07-0.37,0.11-0.55c0.02-0.07,0.03-0.15,0.05-0.22
	c0.05-0.17,0.1-0.34,0.15-0.51c0.02-0.07,0.05-0.15,0.07-0.22c0.02-0.06,0.04-0.13,0.07-0.19c0.03-0.08,0.07-0.16,0.11-0.25
	c0.01-0.02,0.02-0.04,0.02-0.06c0.03-0.07,0.06-0.14,0.09-0.2c0.02-0.05,0.04-0.1,0.07-0.15c0.06-0.12,0.12-0.23,0.18-0.34
	c0.03-0.06,0.06-0.11,0.09-0.17c0.02-0.04,0.04-0.08,0.06-0.11c0.01-0.02,0.02-0.03,0.03-0.05c0.07-0.11,0.14-0.22,0.22-0.33
	c0,0,0-0.01,0.01-0.01c0.03-0.04,0.05-0.08,0.08-0.12c0.02-0.03,0.05-0.07,0.07-0.1c0.02-0.03,0.04-0.06,0.06-0.08
	c0.07-0.09,0.14-0.17,0.21-0.26c0.03-0.04,0.06-0.08,0.09-0.12c0.01-0.01,0.01-0.01,0.02-0.02c0.03-0.03,0.06-0.07,0.09-0.1
	c0.03-0.04,0.06-0.08,0.09-0.11c0.09-0.1,0.18-0.19,0.28-0.29c0.03-0.03,0.07-0.07,0.1-0.1c0.09-0.09,0.19-0.19,0.29-0.28
	c0.1-0.1,0.2-0.18,0.3-0.26c1.57-1.4,3.4-2.36,5.33-2.88c2.91-0.8,6.03-0.6,8.84,0.6c1.54,0.65,2.99,1.62,4.25,2.87
	c1.71,1.71,2.88,3.78,3.47,5.97c0.09,0.32,0.16,0.63,0.22,0.96c0.1,0.49,0.18,0.99,0.21,1.49c0.05,0.55,0.06,1.11,0.04,1.66l0,0.01
	c-0.01,0.27-0.03,0.54-0.07,0.81c-0.02,0.28-0.06,0.56-0.1,0.82c-0.05,0.28-0.1,0.56-0.16,0.82c-0.05,0.27-0.12,0.53-0.2,0.79
	c0,0.01-0.01,0.02-0.01,0.03c-0.08,0.26-0.16,0.52-0.26,0.77c-0.09,0.26-0.19,0.5-0.3,0.75c0,0.03-0.01,0.04-0.02,0.06
	c-0.09,0.22-0.19,0.43-0.3,0.63c-0.01,0.05-0.05,0.1-0.07,0.14c-0.12,0.24-0.26,0.48-0.4,0.71c-0.14,0.25-0.3,0.5-0.46,0.73
	c-0.16,0.24-0.33,0.46-0.5,0.69c0.36-0.42,0.69-0.86,1-1.3c0.06-0.08,0.11-0.17,0.17-0.26c0.24-0.36,0.48-0.72,0.69-1.09
	c0.1-0.18,0.19-0.37,0.29-0.55c0.15-0.29,0.31-0.57,0.44-0.86c0.11-0.24,0.21-0.49,0.31-0.74c0.1-0.25,0.21-0.49,0.3-0.74
	c0.11-0.3,0.2-0.62,0.3-0.93C167.52,33.28,167.59,33.08,167.64,32.88z"/>
<linearGradient id="SVGID_3_" gradientUnits="userSpaceOnUse" x1="144.4603" y1="32.3224" x2="166.8221" y2="32.3224">
	<stop  offset="0" style="stop-color:#2995CC"/>
	<stop  offset="1" style="stop-color:#3F4292"/>
</linearGradient>
<path class="st5" d="M161.78,42.15c0.75-0.64,1.45-1.34,2.09-2.09c0.03-0.04,0.06-0.07,0.09-0.11c0.18-0.23,0.35-0.45,0.5-0.69
	c0.16-0.23,0.32-0.48,0.46-0.73c0.14-0.23,0.27-0.47,0.4-0.71c0.02-0.05,0.05-0.09,0.07-0.14c0.11-0.2,0.22-0.41,0.3-0.63
	c0.01-0.02,0.02-0.03,0.02-0.06c0.11-0.24,0.22-0.49,0.3-0.75c0.1-0.26,0.18-0.51,0.26-0.77c0-0.01,0.01-0.02,0.01-0.03
	c0.08-0.26,0.15-0.52,0.2-0.79c0.07-0.26,0.12-0.54,0.16-0.82c0.05-0.27,0.09-0.54,0.1-0.82c0.03-0.27,0.05-0.54,0.07-0.81l0-0.01
	c0.01-0.55,0.01-1.11-0.04-1.66c-0.04-0.5-0.11-1-0.21-1.49c-0.06-0.32-0.14-0.63-0.22-0.96c-0.59-2.19-1.75-4.25-3.47-5.97
	c-1.26-1.26-2.7-2.22-4.25-2.87c-2.81-1.2-5.94-1.39-8.84-0.6c-1.92,0.52-3.76,1.48-5.33,2.88c0.08-0.06,0.16-0.12,0.24-0.18
	c0.05-0.04,0.1-0.08,0.16-0.12c0.02-0.02,0.04-0.03,0.06-0.05c0.13-0.09,0.27-0.18,0.4-0.26c0.05-0.03,0.1-0.06,0.15-0.09
	c0.03-0.02,0.05-0.03,0.08-0.04c0.14-0.08,0.27-0.15,0.41-0.22c0.08-0.04,0.17-0.09,0.25-0.13c0.11-0.05,0.23-0.1,0.35-0.15
	c0.12-0.05,0.23-0.1,0.35-0.14c0.09-0.03,0.18-0.06,0.27-0.09c0.15-0.05,0.3-0.09,0.45-0.13c0.03-0.01,0.06-0.02,0.09-0.02
	c0.06-0.01,0.11-0.03,0.17-0.04c0.16-0.04,0.31-0.07,0.47-0.1c0.03,0,0.05-0.01,0.08-0.01c0.06-0.01,0.13-0.02,0.19-0.03
	c0.1-0.01,0.19-0.03,0.29-0.04c0.13-0.02,0.26-0.03,0.4-0.03c0.13-0.01,0.27-0.01,0.4-0.01c0.05,0,0.1,0,0.14,0
	c0.13,0,0.27,0,0.4,0.01c0.14,0,0.27,0.01,0.4,0.03c2.1,0.12,4.07,0.74,5.8,1.73c2.62,1.49,4.69,3.84,5.83,6.67
	c0.63,1.55,0.97,3.26,0.97,5.03c0,2.42-0.64,4.71-1.77,6.67c-0.17,0.29-0.33,0.56-0.52,0.83c-0.28,0.42-0.57,0.82-0.91,1.2
	c-0.35,0.43-0.74,0.82-1.15,1.2l-0.01,0.01c-0.2,0.19-0.41,0.36-0.62,0.53c-0.21,0.19-0.43,0.35-0.66,0.51
	c-0.23,0.17-0.46,0.32-0.69,0.46c-0.23,0.16-0.46,0.29-0.7,0.42c-0.01,0.01-0.02,0.01-0.03,0.02c-0.24,0.13-0.48,0.25-0.73,0.36
	c-0.24,0.12-0.49,0.22-0.74,0.31c-0.02,0.02-0.04,0.02-0.06,0.03c-0.21,0.09-0.44,0.17-0.66,0.23c-0.05,0.03-0.1,0.04-0.15,0.06
	c-0.26,0.08-0.53,0.16-0.79,0.22c-0.28,0.07-0.56,0.14-0.84,0.19c-0.28,0.06-0.55,0.09-0.84,0.13c0.55-0.05,1.09-0.12,1.63-0.22
	c0.1-0.02,0.19-0.04,0.29-0.06c0.43-0.08,0.85-0.17,1.27-0.29c0.2-0.05,0.4-0.12,0.59-0.18c0.31-0.09,0.62-0.19,0.93-0.3
	c0.25-0.09,0.49-0.2,0.74-0.3c0.25-0.1,0.49-0.2,0.73-0.31c0.29-0.14,0.58-0.29,0.87-0.45c0.18-0.1,0.37-0.19,0.55-0.29
	c0.37-0.22,0.74-0.45,1.1-0.7c0.08-0.05,0.17-0.1,0.25-0.16c0.45-0.31,0.88-0.64,1.3-1C161.7,42.21,161.74,42.18,161.78,42.15z"/>
<linearGradient id="SVGID_4_" gradientUnits="userSpaceOnUse" x1="137.9094" y1="33.1147" x2="163.2632" y2="33.1147">
	<stop  offset="0" style="stop-color:#2995CC"/>
	<stop  offset="1" style="stop-color:#3F4292"/>
</linearGradient>
<path class="st6" d="M151.22,19.75c0.06,0.01,0.11,0.01,0.17,0.03c0.13,0.02,0.25,0.06,0.38,0.09c0.06,0.01,0.12,0.03,0.18,0.04
	c0.15,0.04,0.3,0.09,0.45,0.13c0.09,0.03,0.18,0.06,0.27,0.09c0.04,0.01,0.08,0.03,0.12,0.04c0.08,0.03,0.15,0.07,0.22,0.1
	c0.12,0.05,0.23,0.1,0.35,0.15c0.03,0.01,0.06,0.02,0.09,0.04c0.06,0.03,0.11,0.06,0.16,0.09c0.14,0.07,0.28,0.14,0.41,0.22
	c0.03,0.02,0.05,0.03,0.08,0.04c0.05,0.03,0.1,0.06,0.15,0.09c0.14,0.08,0.27,0.17,0.4,0.27c0.01,0,0.01,0.01,0.02,0.01
	c0.02,0.01,0.03,0.02,0.04,0.03c0.05,0.04,0.1,0.08,0.16,0.12c0.08,0.06,0.16,0.11,0.24,0.18c0.1,0.08,0.2,0.16,0.3,0.26
	c0.1,0.09,0.19,0.18,0.29,0.28c0.03,0.03,0.07,0.07,0.1,0.1c0.09,0.09,0.19,0.19,0.28,0.29c0.1,0.1,0.18,0.2,0.26,0.3
	c1.4,1.57,2.36,3.4,2.88,5.33c0.8,2.91,0.6,6.03-0.6,8.84c-0.65,1.54-1.62,2.99-2.87,4.25c-1.71,1.71-3.78,2.88-5.97,3.47
	c-0.32,0.09-0.63,0.16-0.96,0.22c-0.49,0.1-0.99,0.18-1.49,0.21c-0.55,0.05-1.11,0.06-1.66,0.04l-0.01,0
	c-0.27-0.01-0.54-0.03-0.81-0.07c-0.28-0.02-0.56-0.06-0.82-0.1c-0.28-0.05-0.56-0.1-0.82-0.16c-0.27-0.05-0.53-0.12-0.79-0.2
	c-0.01,0-0.02-0.01-0.03-0.01c-0.26-0.08-0.52-0.16-0.77-0.26c-0.26-0.09-0.5-0.19-0.75-0.3c-0.03,0-0.04-0.01-0.06-0.02
	c-0.22-0.09-0.43-0.19-0.63-0.3c-0.05-0.01-0.1-0.05-0.14-0.07c-0.24-0.12-0.48-0.26-0.71-0.4c-0.25-0.14-0.5-0.3-0.73-0.46
	c-0.24-0.16-0.46-0.33-0.69-0.5c0.42,0.36,0.86,0.69,1.3,1c0.08,0.06,0.17,0.11,0.25,0.16c0.36,0.24,0.73,0.48,1.1,0.7
	c0.18,0.1,0.37,0.19,0.55,0.29c0.29,0.15,0.57,0.31,0.87,0.45c0.11,0.05,0.23,0.09,0.34,0.14c0.13,0.06,0.26,0.11,0.39,0.16
	c0.25,0.1,0.49,0.21,0.74,0.3c0.3,0.11,0.62,0.2,0.93,0.3c0.2,0.06,0.39,0.13,0.59,0.18c0.42,0.11,0.84,0.2,1.27,0.29
	c0.1,0.02,0.19,0.05,0.29,0.06c0.54,0.09,1.08,0.17,1.63,0.22c0.05,0,0.1,0.01,0.14,0.01c0.98,0.08,1.97,0.08,2.95,0
	c0.05,0,0.1-0.01,0.14-0.01c0,0,0,0,0,0c0.29-0.04,0.56-0.07,0.84-0.13c0.28-0.05,0.56-0.11,0.84-0.19
	c0.26-0.06,0.53-0.14,0.79-0.22c0.05-0.02,0.1-0.03,0.15-0.06c0.22-0.06,0.44-0.14,0.66-0.23c0.02-0.01,0.04-0.01,0.06-0.03
	c0.25-0.09,0.5-0.19,0.74-0.31c0.25-0.11,0.49-0.23,0.73-0.36c0.01-0.01,0.02-0.01,0.03-0.02c0.24-0.13,0.47-0.26,0.7-0.42
	c0.23-0.14,0.46-0.3,0.69-0.46c0.22-0.16,0.44-0.32,0.66-0.51c0.21-0.17,0.42-0.34,0.62-0.53l0.01-0.01c0.4-0.38,0.79-0.78,1.15-1.2
	c0.32-0.38,0.63-0.79,0.91-1.2c0.19-0.27,0.35-0.55,0.52-0.83c1.13-1.96,1.77-4.25,1.77-6.67c0-1.78-0.34-3.48-0.97-5.03
	c-1.14-2.83-3.21-5.18-5.83-6.67c-1.73-0.99-3.7-1.61-5.8-1.73c0.16,0.02,0.32,0.05,0.48,0.07
	C151.16,19.74,151.19,19.75,151.22,19.75z"/>
<linearGradient id="SVGID_5_" gradientUnits="userSpaceOnUse" x1="136.3119" y1="23.0303" x2="161.6657" y2="23.0303">
	<stop  offset="0" style="stop-color:#2995CC"/>
	<stop  offset="1" style="stop-color:#3F4292"/>
</linearGradient>
<path class="st7" d="M154.6,10.22c-0.42-0.11-0.84-0.2-1.27-0.29c-0.1-0.02-0.19-0.05-0.29-0.06c-0.54-0.09-1.08-0.17-1.63-0.22
	c-0.05,0-0.1-0.01-0.14-0.01c-0.96-0.08-1.93-0.08-2.9,0c-0.07,0.01-0.13,0.01-0.2,0.02c0.07-0.01,0.13-0.01,0.2-0.02
	c-0.02,0-0.04,0-0.06,0c-0.05,0-0.1,0.01-0.14,0.01c-0.29,0.04-0.56,0.08-0.84,0.13c-0.29,0.06-0.56,0.12-0.84,0.19
	c-0.27,0.06-0.53,0.14-0.79,0.22c-0.06,0.02-0.1,0.04-0.15,0.06c-0.22,0.06-0.44,0.15-0.66,0.23c-0.02,0.01-0.04,0.02-0.06,0.03
	c-0.25,0.09-0.5,0.19-0.74,0.31c-0.25,0.11-0.49,0.24-0.73,0.36c-0.01,0.01-0.03,0.02-0.03,0.02c-0.24,0.14-0.47,0.27-0.7,0.42
	c-0.23,0.15-0.46,0.31-0.69,0.46c-0.22,0.17-0.44,0.33-0.66,0.51c-0.21,0.17-0.42,0.35-0.62,0.53c0,0,0,0.01-0.01,0.01
	c-0.4,0.38-0.79,0.78-1.15,1.2c-0.32,0.38-0.63,0.79-0.91,1.2c-0.19,0.27-0.35,0.55-0.52,0.83c-1.13,1.96-1.77,4.25-1.77,6.67
	c0,1.78,0.34,3.48,0.97,5.03c1.14,2.83,3.21,5.18,5.83,6.67c1.73,0.99,3.7,1.61,5.8,1.73c-0.1-0.01-0.19-0.03-0.29-0.04
	c-0.07-0.01-0.13-0.02-0.2-0.03c-0.03,0-0.06-0.01-0.08-0.01c-0.16-0.03-0.32-0.06-0.48-0.1c-0.05-0.01-0.1-0.02-0.16-0.04
	c-0.03-0.01-0.06-0.02-0.09-0.03c-0.16-0.04-0.32-0.09-0.48-0.14c-0.08-0.03-0.16-0.05-0.25-0.08c-0.13-0.05-0.26-0.1-0.39-0.16
	c-0.11-0.04-0.21-0.09-0.31-0.14c-0.1-0.05-0.21-0.1-0.31-0.15c-0.13-0.07-0.25-0.13-0.37-0.21c-0.03-0.02-0.06-0.03-0.08-0.05
	c-0.05-0.03-0.1-0.07-0.15-0.1c-0.14-0.09-0.27-0.18-0.41-0.27c-0.03-0.02-0.06-0.04-0.09-0.06c-0.04-0.03-0.07-0.06-0.1-0.08
	c-0.07-0.05-0.14-0.1-0.21-0.16c-0.1-0.08-0.2-0.16-0.3-0.26c-0.12-0.1-0.23-0.22-0.34-0.33c-0.02-0.02-0.04-0.04-0.05-0.06
	c-0.05-0.05-0.1-0.1-0.14-0.15c-0.04-0.05-0.09-0.09-0.13-0.14c-0.1-0.1-0.18-0.2-0.26-0.3c-1.4-1.57-2.36-3.4-2.88-5.33
	c-0.8-2.91-0.6-6.03,0.6-8.84c0.65-1.54,1.62-2.99,2.87-4.25c1.71-1.71,3.78-2.88,5.97-3.47c0.32-0.09,0.63-0.16,0.96-0.22
	c0.49-0.1,0.99-0.18,1.49-0.21c0.55-0.05,1.11-0.06,1.66-0.04c0.01,0.01,0.01,0,0.01,0c0.27,0.02,0.54,0.03,0.81,0.07
	c0.27,0.03,0.55,0.07,0.82,0.1c0.27,0.05,0.55,0.1,0.82,0.16c0.27,0.06,0.52,0.13,0.79,0.2c0,0,0.02,0.01,0.03,0.01
	c0.26,0.09,0.52,0.16,0.77,0.26c0.26,0.09,0.5,0.19,0.75,0.3c0.02,0.01,0.04,0.01,0.06,0.02c0.21,0.09,0.43,0.19,0.63,0.3
	c0.05,0.02,0.09,0.04,0.14,0.07c0.24,0.12,0.48,0.26,0.71,0.4c0.24,0.15,0.48,0.3,0.73,0.46c0.23,0.16,0.46,0.33,0.69,0.5
	c-0.42-0.36-0.86-0.69-1.3-1c-0.08-0.06-0.17-0.11-0.25-0.16c-0.36-0.24-0.72-0.48-1.1-0.69c-0.18-0.1-0.37-0.19-0.55-0.29
	c-0.29-0.15-0.57-0.31-0.86-0.44c-0.24-0.11-0.49-0.21-0.74-0.31c-0.25-0.1-0.49-0.21-0.74-0.3c-0.3-0.11-0.61-0.2-0.92-0.3
	C155,10.34,154.8,10.27,154.6,10.22z"/>
<linearGradient id="SVGID_6_" gradientUnits="userSpaceOnUse" x1="132.7529" y1="23.822" x2="155.1147" y2="23.822">
	<stop  offset="0" style="stop-color:#2995CC"/>
	<stop  offset="1" style="stop-color:#3F4292"/>
</linearGradient>
<path class="st8" d="M141.98,11.31c-0.29,0.14-0.58,0.29-0.86,0.44c-0.18,0.1-0.37,0.19-0.55,0.29c-0.37,0.22-0.74,0.45-1.1,0.7
	c-0.08,0.06-0.17,0.11-0.25,0.16c-0.45,0.31-0.88,0.64-1.3,1c-0.04,0.03-0.07,0.06-0.11,0.09c-0.74,0.63-1.42,1.31-2.05,2.05
	c-0.04,0.05-0.08,0.1-0.13,0.15c0.04-0.05,0.09-0.1,0.13-0.15c-0.01,0.01-0.03,0.03-0.04,0.04c-0.03,0.04-0.06,0.07-0.09,0.11
	c0,0,0,0,0,0c-0.18,0.23-0.34,0.46-0.5,0.68c-0.16,0.24-0.31,0.48-0.46,0.73c-0.14,0.24-0.27,0.47-0.4,0.71
	c-0.03,0.05-0.05,0.1-0.07,0.14c-0.11,0.2-0.21,0.42-0.3,0.63c-0.01,0.02-0.01,0.04-0.02,0.06c-0.11,0.24-0.22,0.49-0.3,0.75
	c-0.1,0.26-0.18,0.52-0.26,0.77c0,0.01-0.01,0.03-0.01,0.03c-0.07,0.27-0.14,0.52-0.2,0.79c-0.06,0.27-0.11,0.54-0.16,0.82
	c-0.04,0.27-0.08,0.55-0.1,0.82c-0.03,0.27-0.05,0.54-0.07,0.81c0,0,0.01,0.01,0,0.01c-0.01,0.55-0.01,1.11,0.04,1.66
	c0.04,0.5,0.11,1,0.21,1.49c0.06,0.32,0.14,0.63,0.22,0.96c0.59,2.19,1.75,4.25,3.47,5.97c1.26,1.26,2.7,2.22,4.25,2.87
	c2.81,1.2,5.94,1.39,8.84,0.6c1.92-0.52,3.76-1.48,5.33-2.88c-0.13,0.1-0.26,0.19-0.39,0.29c-0.02,0.02-0.05,0.04-0.07,0.05
	c-0.05,0.03-0.09,0.07-0.14,0.1c-0.11,0.07-0.22,0.14-0.33,0.21c-0.05,0.03-0.1,0.06-0.15,0.09c-0.05,0.03-0.09,0.06-0.14,0.09
	c-0.1,0.05-0.2,0.1-0.3,0.15c-0.07,0.04-0.15,0.07-0.22,0.11c-0.05,0.02-0.09,0.05-0.13,0.07c-0.09,0.04-0.18,0.07-0.27,0.11
	c-0.1,0.04-0.2,0.08-0.3,0.12c-0.04,0.01-0.08,0.03-0.12,0.04c-0.08,0.03-0.16,0.05-0.24,0.07c-0.12,0.04-0.24,0.07-0.36,0.11
	c-0.03,0.01-0.06,0.02-0.1,0.03c-0.02,0-0.03,0.01-0.05,0.01c-0.06,0.01-0.11,0.02-0.17,0.04c-0.14,0.03-0.28,0.06-0.41,0.08
	c-0.02,0-0.05,0.01-0.07,0.01c-0.03,0.01-0.06,0.01-0.1,0.02c-0.04,0.01-0.09,0.01-0.13,0.02c-0.09,0.01-0.17,0.03-0.26,0.04
	c-0.13,0.02-0.26,0.03-0.4,0.03c-0.13,0.01-0.27,0.01-0.4,0.01c-0.05,0-0.1,0-0.14,0c0,0,0,0-0.01,0c-0.07,0-0.14,0-0.21,0
	c-0.06,0-0.13,0-0.19,0c-0.14,0-0.27-0.01-0.4-0.03c-2.1-0.12-4.07-0.74-5.8-1.73c-2.62-1.49-4.69-3.84-5.83-6.67
	c-0.63-1.55-0.97-3.26-0.97-5.03c0-2.42,0.64-4.71,1.77-6.67c0.17-0.29,0.33-0.56,0.52-0.83c0.28-0.42,0.57-0.82,0.91-1.2
	c0.35-0.43,0.74-0.82,1.15-1.2c0.01,0,0.01-0.01,0.01-0.01c0.2-0.18,0.41-0.36,0.62-0.53c0.21-0.18,0.44-0.34,0.66-0.51
	c0.23-0.16,0.46-0.31,0.69-0.46c0.23-0.15,0.46-0.28,0.7-0.42c0,0,0.02-0.01,0.03-0.02c0.24-0.12,0.48-0.25,0.73-0.36
	c0.24-0.12,0.49-0.22,0.74-0.31c0.02-0.01,0.04-0.02,0.06-0.03c0.21-0.08,0.43-0.17,0.66-0.23c0.05-0.02,0.09-0.04,0.15-0.06
	c0.26-0.08,0.52-0.16,0.79-0.22c0.28-0.06,0.56-0.13,0.84-0.19c0.28-0.05,0.56-0.09,0.84-0.13c-0.55,0.05-1.09,0.12-1.63,0.22
	c-0.1,0.02-0.19,0.04-0.29,0.06c-0.43,0.08-0.85,0.17-1.27,0.29c-0.2,0.05-0.4,0.12-0.6,0.19c-0.31,0.09-0.62,0.19-0.92,0.3
	c-0.25,0.09-0.49,0.2-0.74,0.3C142.47,11.1,142.22,11.2,141.98,11.31z"/>
<linearGradient id="SVGID_7_" gradientUnits="userSpaceOnUse" x1="131.2946" y1="28.8725" x2="158.1913" y2="28.8725">
	<stop  offset="0" style="stop-color:#2995CC"/>
	<stop  offset="1" style="stop-color:#3F4292"/>
</linearGradient>
<path class="st9" d="M131.37,29.69c0.04,0.29,0.08,0.56,0.13,0.84c0.06,0.29,0.12,0.56,0.19,0.84c0.06,0.27,0.14,0.53,0.22,0.79
	c0.02,0.06,0.04,0.1,0.06,0.15c0.06,0.22,0.15,0.44,0.23,0.66c0.01,0.02,0.02,0.04,0.03,0.06c0.09,0.25,0.19,0.5,0.31,0.74
	c0.11,0.25,0.24,0.49,0.36,0.73c0.01,0.01,0.02,0.03,0.02,0.03c0.14,0.24,0.27,0.47,0.42,0.7c0.15,0.23,0.31,0.46,0.46,0.69
	c0.17,0.22,0.33,0.44,0.51,0.66c0.17,0.21,0.35,0.42,0.53,0.62c0,0,0.01,0,0.01,0.01c0.38,0.4,0.78,0.79,1.2,1.15
	c0.38,0.32,0.79,0.63,1.2,0.91c0.27,0.19,0.55,0.35,0.83,0.52c1.96,1.13,4.25,1.77,6.67,1.77c1.78,0,3.48-0.34,5.03-0.97
	c2.83-1.14,5.18-3.21,6.67-5.83c0.99-1.73,1.61-3.7,1.73-5.8c-0.02,0.16-0.05,0.32-0.07,0.48c0,0.02,0,0.04-0.01,0.06
	c0,0.01,0,0.02-0.01,0.02c-0.01,0.06-0.02,0.12-0.03,0.17c-0.03,0.13-0.06,0.25-0.09,0.38c-0.01,0.06-0.03,0.12-0.04,0.17
	c-0.01,0.05-0.02,0.11-0.04,0.16c-0.03,0.11-0.07,0.21-0.11,0.32c-0.02,0.05-0.03,0.1-0.04,0.14c-0.01,0.03-0.02,0.06-0.04,0.09
	c-0.02,0.05-0.03,0.1-0.05,0.14c-0.03,0.09-0.07,0.18-0.11,0.26c-0.02,0.06-0.04,0.12-0.07,0.17c-0.02,0.04-0.04,0.08-0.06,0.12
	c-0.02,0.04-0.03,0.08-0.05,0.11c-0.04,0.07-0.08,0.15-0.11,0.22c-0.06,0.11-0.12,0.22-0.18,0.33c-0.02,0.03-0.03,0.06-0.05,0.09
	c-0.04,0.06-0.08,0.12-0.12,0.18c-0.08,0.12-0.15,0.24-0.24,0.36c-0.01,0.02-0.03,0.04-0.04,0.06c-0.04,0.05-0.08,0.11-0.12,0.16
	c-0.06,0.08-0.12,0.16-0.18,0.24c-0.08,0.1-0.16,0.2-0.26,0.3c-0.09,0.1-0.18,0.19-0.28,0.29c-0.03,0.03-0.07,0.07-0.1,0.1
	c0,0,0,0,0,0c-0.05,0.05-0.1,0.1-0.15,0.14c-0.05,0.04-0.09,0.09-0.14,0.13c-0.1,0.1-0.2,0.18-0.3,0.26
	c-1.57,1.4-3.4,2.36-5.33,2.88c-2.91,0.8-6.03,0.6-8.84-0.6c-1.54-0.65-2.99-1.62-4.25-2.87c-1.71-1.71-2.88-3.78-3.47-5.97
	c-0.09-0.32-0.16-0.63-0.22-0.96c-0.1-0.49-0.18-0.99-0.21-1.49c-0.05-0.55-0.06-1.11-0.04-1.66c0.01-0.01,0-0.01,0-0.01
	c0.02-0.27,0.03-0.54,0.07-0.81c0.03-0.27,0.07-0.55,0.1-0.82c0.05-0.27,0.1-0.55,0.16-0.82c0.06-0.27,0.13-0.52,0.2-0.79
	c0,0,0.01-0.02,0.01-0.03c0.09-0.26,0.16-0.52,0.26-0.77c0.09-0.26,0.19-0.5,0.3-0.75c0.01-0.02,0.01-0.04,0.02-0.06
	c0.09-0.21,0.19-0.43,0.3-0.63c0.02-0.05,0.04-0.09,0.07-0.14c0.12-0.24,0.26-0.48,0.4-0.71c0.15-0.24,0.3-0.48,0.46-0.73
	c0.16-0.23,0.33-0.46,0.5-0.68c-0.35,0.42-0.69,0.86-1,1.3c-0.06,0.08-0.1,0.17-0.16,0.25c-0.24,0.36-0.48,0.73-0.7,1.1
	c-0.1,0.18-0.19,0.37-0.29,0.55c-0.15,0.29-0.31,0.57-0.44,0.86c-0.11,0.24-0.21,0.49-0.31,0.74c-0.1,0.24-0.21,0.49-0.3,0.73
	c-0.11,0.3-0.2,0.62-0.3,0.93c-0.06,0.2-0.13,0.39-0.18,0.59c-0.11,0.42-0.2,0.85-0.29,1.28c-0.02,0.09-0.04,0.19-0.06,0.28
	c-0.09,0.54-0.17,1.08-0.22,1.63c0,0.05-0.01,0.1-0.01,0.15c-0.04,0.49-0.06,0.98-0.06,1.47c0,0.47,0.02,0.95,0.06,1.42
	C131.36,29.56,131.37,29.62,131.37,29.69c0-0.07-0.01-0.14-0.01-0.2c0,0.02,0,0.04,0,0.05C131.36,29.59,131.37,29.65,131.37,29.69
	C131.37,29.69,131.37,29.69,131.37,29.69z"/>
<linearGradient id="SVGID_8_" gradientUnits="userSpaceOnUse" x1="131.37" y1="33.926" x2="159.7048" y2="33.926">
	<stop  offset="0" style="stop-color:#2995CC"/>
	<stop  offset="1" style="stop-color:#3F4292"/>
</linearGradient>
<path class="st10" d="M139.32,43.21c0.23,0.14,0.47,0.27,0.71,0.4c0.05,0.02,0.09,0.05,0.14,0.07c0.2,0.11,0.41,0.22,0.63,0.3
	c0.02,0.01,0.03,0.02,0.06,0.02c0.24,0.11,0.49,0.22,0.75,0.3c0.26,0.1,0.51,0.18,0.77,0.26c0.01,0,0.02,0.01,0.03,0.01
	c0.26,0.08,0.52,0.15,0.79,0.2c0.26,0.07,0.54,0.12,0.82,0.16c0.27,0.05,0.54,0.09,0.82,0.1c0.27,0.03,0.54,0.05,0.81,0.07l0.01,0
	c0.55,0.01,1.11,0.01,1.66-0.04c0.5-0.04,1-0.11,1.49-0.21c0.32-0.06,0.63-0.14,0.96-0.22c2.19-0.59,4.25-1.75,5.97-3.47
	c1.26-1.26,2.22-2.7,2.87-4.25c1.2-2.81,1.39-5.94,0.6-8.84c-0.52-1.92-1.48-3.76-2.88-5.33c0.1,0.13,0.19,0.26,0.29,0.39
	c0.01,0.02,0.03,0.03,0.04,0.05c0,0.01,0.01,0.01,0.01,0.02c0.03,0.05,0.07,0.09,0.1,0.14c0.07,0.11,0.14,0.22,0.2,0.33
	c0.03,0.05,0.07,0.11,0.1,0.16c0.08,0.14,0.15,0.27,0.22,0.41c0.03,0.06,0.06,0.11,0.09,0.16c0.01,0.03,0.02,0.06,0.04,0.09
	c0.02,0.04,0.04,0.08,0.06,0.12c0.03,0.07,0.06,0.15,0.09,0.23c0.03,0.08,0.07,0.15,0.1,0.23c0.02,0.04,0.03,0.08,0.04,0.12
	c0.03,0.08,0.06,0.16,0.08,0.25c0,0.01,0,0.01,0.01,0.02c0.05,0.15,0.09,0.3,0.14,0.45c0.02,0.06,0.03,0.12,0.04,0.18
	c0.03,0.13,0.07,0.25,0.09,0.38c0.01,0.06,0.02,0.11,0.03,0.17c0,0.03,0.01,0.06,0.01,0.09c0.03,0.16,0.05,0.32,0.07,0.48
	c0.02,0.13,0.03,0.26,0.03,0.4c0.01,0.13,0.01,0.27,0.01,0.4c0,0.05,0,0.1,0,0.14c0,0.13,0,0.27-0.01,0.4c0,0.14-0.01,0.27-0.03,0.4
	c-0.12,2.1-0.74,4.07-1.73,5.8c-1.49,2.62-3.84,4.69-6.67,5.83c-1.55,0.63-3.26,0.97-5.03,0.97c-2.42,0-4.71-0.64-6.67-1.77
	c-0.29-0.17-0.56-0.33-0.83-0.52c-0.42-0.28-0.82-0.57-1.2-0.91c-0.43-0.35-0.82-0.74-1.2-1.15c0-0.01-0.01-0.01-0.01-0.01
	c-0.18-0.2-0.36-0.41-0.53-0.62c-0.18-0.21-0.34-0.44-0.51-0.66c-0.16-0.23-0.31-0.46-0.46-0.69c-0.15-0.23-0.28-0.46-0.42-0.7
	c0,0-0.01-0.02-0.02-0.03c-0.12-0.24-0.25-0.48-0.36-0.73c-0.12-0.24-0.22-0.49-0.31-0.74c-0.01-0.02-0.02-0.04-0.03-0.06
	c-0.08-0.21-0.17-0.43-0.23-0.66c-0.02-0.05-0.04-0.09-0.06-0.15c-0.08-0.26-0.16-0.52-0.22-0.79c-0.06-0.28-0.13-0.56-0.19-0.84
	c-0.05-0.28-0.09-0.55-0.13-0.84c0.05,0.55,0.12,1.09,0.22,1.63c0.02,0.1,0.04,0.19,0.06,0.28c0.08,0.43,0.17,0.86,0.29,1.28
	c0.05,0.2,0.12,0.4,0.18,0.59c0.1,0.31,0.19,0.62,0.3,0.93c0.09,0.25,0.2,0.49,0.3,0.74c0.05,0.13,0.11,0.26,0.17,0.4
	c0.05,0.11,0.09,0.23,0.14,0.34c0.14,0.29,0.29,0.58,0.45,0.87c0.1,0.18,0.19,0.37,0.29,0.55c0.22,0.37,0.45,0.74,0.7,1.1
	c0.05,0.08,0.1,0.17,0.16,0.25c0.31,0.45,0.64,0.88,1,1.3c0.03,0.04,0.06,0.07,0.09,0.11c0.32,0.37,0.65,0.74,1,1.09
	c0.35,0.35,0.71,0.68,1.09,1c0.04,0.03,0.07,0.06,0.11,0.09c0.23,0.18,0.45,0.35,0.69,0.5C138.83,42.91,139.07,43.07,139.32,43.21z"
	/>
</svg>
